<?xml version="1.0" standalone="no"?>
<!DOCTYPE svg PUBLIC "-//W3C//DTD SVG 20010904//EN"
 "http://www.w3.org/TR/2001/REC-SVG-20010904/DTD/svg10.dtd">
<svg version="1.0" xmlns="http://www.w3.org/2000/svg"
 width="360.000000pt" height="360.000000pt" viewBox="0 0 360.000000 360.000000"
 preserveAspectRatio="xMidYMid meet">

<g transform="translate(0.000000,360.000000) scale(0.100000,-0.100000)"
fill="#000000" stroke="none">
<path d="M1235 2870 c-274 -42 -509 -187 -667 -410 -122 -173 -143 -249 -219
-785 -60 -419 -62 -443 -51 -518 19 -129 75 -229 176 -315 200 -169 500 -156
680 31 52 55 76 94 170 281 l108 216 368 0 369 0 108 -217 c93 -187 116 -225
168 -278 147 -152 379 -195 567 -106 160 76 265 216 290 388 11 76 9 99 -51
519 -65 456 -83 540 -147 666 -123 244 -348 426 -624 505 l-95 27 -550 2
c-302 1 -572 -1 -600 -6z m1095 -210 c308 -40 580 -281 643 -570 30 -136 120
-773 121 -855 1 -98 -21 -154 -89 -220 -59 -56 -158 -91 -233 -81 -62 9 -140
47 -179 88 -18 19 -84 138 -153 275 -75 151 -131 250 -147 263 -26 20 -35 21
-499 18 -458 -3 -474 -4 -493 -23 -11 -11 -74 -128 -141 -260 -68 -136 -134
-254 -153 -273 -74 -77 -191 -106 -293 -74 -74 23 -123 59 -163 118 -57 86
-57 107 -12 440 64 464 72 514 93 598 71 287 338 521 636 556 98 11 974 11
1062 0z"/>
<path d="M1189 2411 c-16 -16 -30 -39 -30 -50 -1 -12 -3 -25 -4 -31 -1 -5 -3
-30 -4 -54 l-1 -44 -76 -4 c-71 -3 -78 -6 -105 -36 -31 -34 -37 -73 -18 -115
17 -37 49 -52 129 -57 l75 -5 -3 -41 c-9 -125 65 -200 154 -158 46 22 64 63
64 144 l0 60 70 0 c63 0 72 3 105 31 47 41 49 93 6 141 -27 30 -34 33 -104 36
l-75 4 -4 76 c-5 69 -8 78 -37 104 -44 40 -101 39 -142 -1z"/>
<path d="M2281 2424 c-81 -58 -41 -187 59 -187 97 0 139 123 63 183 -31 24
-90 26 -122 4z"/>
<path d="M2084 2221 c-35 -15 -64 -60 -64 -100 0 -52 50 -101 103 -101 52 0
96 41 104 96 4 35 1 46 -23 73 -31 34 -83 48 -120 32z"/>
<path d="M2505 2212 c-65 -41 -71 -118 -14 -166 97 -82 226 51 142 144 -36 40
-86 48 -128 22z"/>
<path d="M2281 1994 c-82 -58 -41 -189 59 -189 99 0 140 132 59 189 -30 21
-88 21 -118 0z"/>
</g>
</svg>
